<svg width="60" height="60" viewBox="0 0 60 60" fill="none" xmlns="http://www.w3.org/2000/svg">
<g id="Icon">
<g id="Rectangle 32" filter="url(#filter0_d_906_12)">
<rect x="4" y="2" width="52" height="52" rx="26" fill="url(#paint0_linear_906_12)"/>
</g>
<path id="Vector" d="M22.4554 36.55C21.9446 36.55 21.5074 36.3542 21.1438 35.9625C20.7801 35.5708 20.5982 35.1 20.5982 34.55V19.15C20.5982 19.0333 20.6446 18.9542 20.7375 18.9125C20.8304 18.8708 20.9155 18.8917 20.9929 18.975L21.8286 19.875C21.9214 19.975 22.0298 20.025 22.1536 20.025C22.2774 20.025 22.3857 19.975 22.4786 19.875L23.3607 18.9C23.4536 18.8 23.5619 18.75 23.6857 18.75C23.8095 18.75 23.9179 18.8 24.0107 18.9L24.9161 19.875C25.0089 19.975 25.1173 20.025 25.2411 20.025C25.3649 20.025 25.4732 19.975 25.5661 19.875L26.4714 18.9C26.5643 18.8 26.6726 18.75 26.7964 18.75C26.9202 18.75 27.0286 18.8 27.1214 18.9L28.0036 19.875C28.0964 19.975 28.2048 20.025 28.3286 20.025C28.4524 20.025 28.5607 19.975 28.6536 19.875L29.5589 18.9C29.6518 18.8 29.7601 18.75 29.8839 18.75C30.0077 18.75 30.1161 18.8 30.2089 18.9L31.1143 19.875C31.2071 19.975 31.3155 20.025 31.4393 20.025C31.5631 20.025 31.6714 19.975 31.7643 19.875L32.6464 18.9C32.7393 18.8 32.8476 18.75 32.9714 18.75C33.0952 18.75 33.2036 18.8 33.2964 18.9L34.2018 19.875C34.2946 19.975 34.403 20.025 34.5268 20.025C34.6506 20.025 34.7589 19.975 34.8518 19.875L35.7571 18.9C35.85 18.8 35.9583 18.75 36.0821 18.75C36.206 18.75 36.3143 18.8 36.4071 18.9L37.2893 19.875C37.3821 19.975 37.4905 20.025 37.6143 20.025C37.7381 20.025 37.8464 19.975 37.9393 19.875L38.775 18.975C38.8524 18.8917 38.9375 18.8708 39.0304 18.9125C39.1232 18.9542 39.1696 19.0333 39.1696 19.15V34.55C39.1696 35.1 38.9878 35.5708 38.6241 35.9625C38.2604 36.3542 37.8232 36.55 37.3125 36.55H22.4554ZM22.4554 34.55H28.9554V28.55H22.4554V34.55ZM30.8125 34.55H37.3125V32.55H30.8125V34.55ZM30.8125 30.55H37.3125V28.55H30.8125V30.55ZM22.4554 26.55H37.3125V23.55H22.4554V26.55Z" fill="url(#paint1_linear_906_12)"/>
</g>
<defs>
<filter id="filter0_d_906_12" x="0" y="0" width="60" height="60" filterUnits="userSpaceOnUse" color-interpolation-filters="sRGB">
<feFlood flood-opacity="0" result="BackgroundImageFix"/>
<feColorMatrix in="SourceAlpha" type="matrix" values="0 0 0 0 0 0 0 0 0 0 0 0 0 0 0 0 0 0 127 0" result="hardAlpha"/>
<feOffset dy="2"/>
<feGaussianBlur stdDeviation="2"/>
<feComposite in2="hardAlpha" operator="out"/>
<feColorMatrix type="matrix" values="0 0 0 0 0 0 0 0 0 0 0 0 0 0 0 0 0 0 0.25 0"/>
<feBlend mode="normal" in2="BackgroundImageFix" result="effect1_dropShadow_906_12"/>
<feBlend mode="normal" in="SourceGraphic" in2="effect1_dropShadow_906_12" result="shape"/>
</filter>
<linearGradient id="paint0_linear_906_12" x1="29.5357" y1="8.5" x2="30.6126" y2="64.9972" gradientUnits="userSpaceOnUse">
<stop stop-color="#43ABD8"/>
<stop offset="0.418289" stop-color="#8DB9E2"/>
<stop offset="1" stop-color="#E3E8F3"/>
</linearGradient>
<linearGradient id="paint1_linear_906_12" x1="29.8839" y1="17.75" x2="25.0715" y2="38.6037" gradientUnits="userSpaceOnUse">
<stop offset="0.669544" stop-color="white"/>
<stop offset="1" stop-color="white" stop-opacity="0"/>
</linearGradient>
</defs>
</svg>
