<svg width="30" height="26" viewBox="0 0 30 26" fill="none" xmlns="http://www.w3.org/2000/svg">
<path id="Vector" d="M6.81818 26C5.68182 26 4.71591 25.526 3.92045 24.5781C3.125 23.6302 2.72727 22.4792 2.72727 21.125H0V0H21.8182V6.5H25.9091L30 13V21.125H27.2727C27.2727 22.4792 26.875 23.6302 26.0795 24.5781C25.2841 25.526 24.3182 26 23.1818 26C22.0455 26 21.0795 25.526 20.2841 24.5781C19.4886 23.6302 19.0909 22.4792 19.0909 21.125H10.9091C10.9091 22.4792 10.5114 23.6302 9.71591 24.5781C8.92045 25.526 7.95455 26 6.81818 26ZM6.81818 22.75C7.20455 22.75 7.52841 22.5943 7.78977 22.2828C8.05114 21.9714 8.18182 21.5854 8.18182 21.125C8.18182 20.6646 8.05114 20.2786 7.78977 19.9672C7.52841 19.6557 7.20455 19.5 6.81818 19.5C6.43182 19.5 6.10795 19.6557 5.84659 19.9672C5.58523 20.2786 5.45455 20.6646 5.45455 21.125C5.45455 21.5854 5.58523 21.9714 5.84659 22.2828C6.10795 22.5943 6.43182 22.75 6.81818 22.75ZM2.72727 17.875H3.81818C4.20455 17.3875 4.64773 16.9948 5.14773 16.6969C5.64773 16.399 6.20455 16.25 6.81818 16.25C7.43182 16.25 7.98864 16.399 8.48864 16.6969C8.98864 16.9948 9.43182 17.3875 9.81818 17.875H19.0909V3.25H2.72727V17.875ZM23.1818 22.75C23.5682 22.75 23.892 22.5943 24.1534 22.2828C24.4148 21.9714 24.5455 21.5854 24.5455 21.125C24.5455 20.6646 24.4148 20.2786 24.1534 19.9672C23.892 19.6557 23.5682 19.5 23.1818 19.5C22.7955 19.5 22.4716 19.6557 22.2102 19.9672C21.9489 20.2786 21.8182 20.6646 21.8182 21.125C21.8182 21.5854 21.9489 21.9714 22.2102 22.2828C22.4716 22.5943 22.7955 22.75 23.1818 22.75ZM21.8182 14.625H27.6136L24.5455 9.75H21.8182V14.625Z" fill="#ACACAC"/>
</svg>
