<svg width="40" height="40" viewBox="0 0 40 40" fill="none" xmlns="http://www.w3.org/2000/svg">
<g id="279832921678770220 1">
<g id="Layer_x0020_1">
<g id="_480183784">
<path id="Vector" fill-rule="evenodd" clip-rule="evenodd" d="M17.4219 16.3281C17.1094 16.3281 16.875 16.0938 16.875 15.7812H7.57813C7.57813 16.0938 7.26563 16.3281 6.95313 16.3281C6.64063 16.3281 6.40625 16.0938 6.40625 15.7812V5.54688C6.40625 5.23438 6.64063 4.92188 6.95313 4.92188H17.4219C17.7344 4.92188 17.9688 5.23438 17.9688 5.54688V15.7812C18.0469 16.0938 17.7344 16.3281 17.4219 16.3281Z" fill="#F3A766"/>
<path id="Vector_2" fill-rule="evenodd" clip-rule="evenodd" d="M9.84375 4.92188H14.6094V10.5469C14.6094 10.7031 14.5312 10.7812 14.4531 10.9375L12.6562 12.7344C12.5 12.8125 12.3438 12.8906 12.2656 12.8906C12.1094 12.8906 11.9531 12.8125 11.7969 12.7344L10 10.9375C9.92188 10.7812 9.84375 10.625 9.84375 10.5469V4.92188Z" fill="#FED9A8"/>
<path id="Vector_3" fill-rule="evenodd" clip-rule="evenodd" d="M12.2656 26.7188C11.9531 26.7188 11.6406 26.4062 11.6406 26.0938H2.34375C2.34375 26.4062 2.10938 26.7188 1.79688 26.7188C1.48438 26.7188 1.17188 26.4062 1.17188 26.0938V15.9375C1.17188 15.5469 1.48438 15.3125 1.79688 15.3125H12.1875C12.5 15.3125 12.8125 15.5469 12.8125 15.9375V26.1719C12.8125 26.4062 12.5781 26.7188 12.2656 26.7188Z" fill="#F3A766"/>
<path id="Vector_4" fill-rule="evenodd" clip-rule="evenodd" d="M12.3438 15.3125C12.5781 15.3906 12.8125 15.625 12.8125 15.9375V26.1719C12.8125 26.4062 12.5781 26.6406 12.3438 26.7188C12.1875 26.4844 12.1875 26.3281 12.1875 26.0938V15.9375C12.1875 15.7031 12.1875 15.4688 12.3438 15.3125Z" fill="#DE9657"/>
<path id="Vector_5" fill-rule="evenodd" clip-rule="evenodd" d="M4.6875 15.3125H9.45312V20.8594C9.45312 21.0156 9.375 21.1719 9.21875 21.25L7.5 23.0469C7.34375 23.2031 7.1875 23.2812 7.03125 23.2812C6.875 23.2812 6.71875 23.2031 6.64062 23.0469L4.84375 21.25C4.76562 21.1719 4.6875 21.0156 4.6875 20.8594V15.3125Z" fill="#FED9A8"/>
<path id="Vector_6" fill-rule="evenodd" clip-rule="evenodd" d="M17.9688 14.7656H6.40625V15.3125H9.45312H12.1875C12.2656 15.3125 12.2656 15.3125 12.3438 15.3125C12.5781 15.3906 12.7344 15.5469 12.8125 15.7812V16.0156C12.8906 15.7812 13.125 15.3125 13.3594 15.3125H16.25H17.9688V14.7656Z" fill="#DE9657"/>
<path id="Vector_7" fill-rule="evenodd" clip-rule="evenodd" d="M23.8281 26.7188C23.5156 26.7188 23.2813 26.4062 23.2813 26.0938H13.9844C13.9844 26.4062 13.6719 26.7188 13.3594 26.7188C13.0469 26.7188 12.8125 26.4062 12.8125 26.0938V15.9375C12.8125 15.5469 13.0469 15.3125 13.3594 15.3125H23.8281C24.1406 15.3125 24.375 15.5469 24.375 15.9375V26.1719C24.4531 26.4062 24.1406 26.7188 23.8281 26.7188Z" fill="#F3A766"/>
<path id="Vector_8" fill-rule="evenodd" clip-rule="evenodd" d="M16.25 15.3125H21.0156V20.8594C21.0156 21.0156 20.9375 21.1719 20.8594 21.25L19.0625 23.0469C18.9062 23.2031 18.75 23.2812 18.6719 23.2812C18.5156 23.2812 18.3594 23.2031 18.2031 23.0469L16.4062 21.25C16.3281 21.1719 16.25 21.0156 16.25 20.8594V15.3125Z" fill="#FED9A8"/>
<g id="Group">
<path id="Vector_9" fill-rule="evenodd" clip-rule="evenodd" d="M39.375 26.3281C39.0625 26.3281 38.8281 26.0938 38.8281 25.7812H27.7344C27.7344 26.0938 27.5 26.3281 27.1875 26.3281C26.875 26.3281 26.5625 26.0938 26.5625 25.7812V12.7344C26.5625 12.4219 26.875 12.1875 27.1875 12.1875H33.9844C34.0625 12.1875 34.2188 12.2656 34.375 12.3438L39.7656 17.2656C39.9219 17.4219 40 17.5781 40 17.7344V25.7031C40 26.0938 39.7656 26.3281 39.375 26.3281Z" fill="#1892E6"/>
<path id="Vector_10" fill-rule="evenodd" clip-rule="evenodd" d="M30.3125 13.5938H31.3281H33.3594C33.4375 13.5938 33.5938 13.6719 33.6719 13.75L38.2031 17.8906C38.2812 17.9688 38.3594 18.0469 38.3594 18.2031V19.4531V20.4688H30.8594C30.5469 20.4688 30.3125 20.2344 30.3125 20V13.5938Z" fill="#CBFFFF"/>
<path id="Vector_11" fill-rule="evenodd" clip-rule="evenodd" d="M39.4531 31.7969H36.0938C36.0156 31.7969 35.9375 31.7969 35.8594 31.7188C35.2344 31.7969 34.5312 31.7969 33.75 31.7969H6.79688C5.9375 31.7969 5.07812 31.7969 4.29688 31.7188C4.14062 31.7969 4.0625 31.7969 3.98438 31.7969H0.546875C0.234375 31.7969 0 31.5625 0 31.25V25.7812C0 25.3906 0.234375 25.1562 0.546875 25.1562H38.9062H39.375H40V25.7812V27.2656V31.1719C40 31.5625 39.7656 31.7969 39.4531 31.7969Z" fill="#99A4AC"/>
<path id="Vector_12" fill-rule="evenodd" clip-rule="evenodd" d="M7.1875 35.0781C5.15625 35.0781 3.4375 33.2812 3.4375 31.1719C3.4375 29.0625 5.07812 27.3438 7.1875 27.3438C9.29688 27.3438 11.0156 29.0625 11.0156 31.1719C11.0156 33.2812 9.29688 35.0781 7.1875 35.0781Z" fill="#4D4D4D"/>
<path id="Vector_13" fill-rule="evenodd" clip-rule="evenodd" d="M16.25 35.0781C14.1406 35.0781 12.4219 33.2812 12.4219 31.1719C12.4219 29.0625 14.1406 27.3438 16.25 27.3438C18.3594 27.3438 20.0781 29.0625 20.0781 31.1719C20.0781 33.2812 18.3594 35.0781 16.25 35.0781Z" fill="#4D4D4D"/>
<path id="Vector_14" fill-rule="evenodd" clip-rule="evenodd" d="M32.8125 35.0781C30.7031 35.0781 28.9844 33.2812 28.9844 31.1719C28.9844 29.0625 30.7031 27.3438 32.8125 27.3438C34.9219 27.3438 36.6406 29.0625 36.6406 31.1719C36.6406 33.2812 35 35.0781 32.8125 35.0781Z" fill="#4D4D4D"/>
<path id="Vector_15" fill-rule="evenodd" clip-rule="evenodd" d="M31.4844 22.8906H29.375C28.9844 22.8906 28.75 22.5781 28.75 22.2656C28.75 21.9531 28.9844 21.7188 29.375 21.7188H31.4844C31.875 21.7188 32.1094 21.9531 32.1094 22.2656C32.1094 22.5781 31.7969 22.8906 31.4844 22.8906Z" fill="#BA3030"/>
<path id="Vector_16" fill-rule="evenodd" clip-rule="evenodd" d="M32.8125 29.2969C31.7969 29.2969 30.9375 30.1562 30.9375 31.25C30.9375 32.2656 31.7969 33.125 32.8125 33.125C33.9062 33.125 34.7656 32.2656 34.7656 31.25C34.7656 30.1562 33.9062 29.2969 32.8125 29.2969Z" fill="#969696"/>
<path id="Vector_17" fill-rule="evenodd" clip-rule="evenodd" d="M16.3281 29.2969C15.2344 29.2969 14.375 30.1562 14.375 31.25C14.375 32.2656 15.2344 33.125 16.3281 33.125C17.3438 33.125 18.2031 32.2656 18.2031 31.25C18.2031 30.1562 17.3438 29.2969 16.3281 29.2969Z" fill="#969696"/>
<path id="Vector_18" fill-rule="evenodd" clip-rule="evenodd" d="M7.26562 29.2969C6.17188 29.2969 5.3125 30.1562 5.3125 31.25C5.3125 32.2656 6.17188 33.125 7.26562 33.125C8.28125 33.125 9.14062 32.2656 9.14062 31.25C9.14062 30.1562 8.28125 29.2969 7.26562 29.2969Z" fill="#969696"/>
</g>
</g>
</g>
</g>
</svg>
