<svg width="29" height="31" viewBox="0 0 29 31" fill="none" xmlns="http://www.w3.org/2000/svg">
<g id="Group">
<path id="Vector" opacity="0.4" d="M14.2705 17.1402C19.111 17.1402 23.035 13.4711 23.035 8.9451C23.035 4.41907 19.111 0.75 14.2705 0.75C9.42994 0.75 5.50592 4.41907 5.50592 8.9451C5.50592 13.4711 9.42994 17.1402 14.2705 17.1402Z" fill="#200E32"/>
<path id="Vector_2" d="M28.2785 25.3469C28.2864 25.2302 28.2864 25.1133 28.2785 24.9967C28.2439 24.5656 28.1147 24.1447 27.8982 23.7574C27.0462 22.1814 24.6574 21.4674 22.6643 21.0633C21.2423 20.7831 19.7975 20.6029 18.3434 20.5245L16.8219 20.4167H16.1372H15.2852H13.2464H12.3944H11.7098L10.1883 20.5245C8.73418 20.6029 7.28935 20.7831 5.86733 21.0633C3.87421 21.4136 1.48551 22.1409 0.633489 23.7574C0.417004 24.1447 0.287809 24.5656 0.253122 24.9967C0.245216 25.1133 0.245216 25.2302 0.253122 25.3469C0.245822 25.4635 0.245822 25.5805 0.253122 25.6971C0.294506 26.1245 0.428832 26.5407 0.648704 26.9229C1.50072 28.4989 3.88943 29.2129 5.88255 29.617C7.30721 29.8841 8.75094 30.0641 10.2035 30.1558L11.725 30.2501H12.0901H12.4096H16.1524H16.472H16.8371L18.3586 30.1558C19.8111 30.0641 21.2549 29.8841 22.6795 29.617C24.6727 29.2533 27.0614 28.5393 27.9134 26.9229C28.123 26.5286 28.2518 26.1044 28.2938 25.6702C28.2957 25.5622 28.2906 25.4543 28.2785 25.3469Z" fill="#979797"/>
</g>
</svg>
