<svg width="30" height="25" viewBox="0 0 30 25" fill="none" xmlns="http://www.w3.org/2000/svg">
<g id="Group">
<path id="Vector" d="M26.6909 0H2.34131C1.05031 0 0 1.07837 0 2.40385V22.5962C0 23.9216 1.05031 25 2.34131 25H26.6909C27.9819 25 29.0323 23.9216 29.0323 22.5962V2.40385C29.0323 1.07837 27.9819 0 26.6909 0ZM0.936525 22.5962V2.40385C0.936525 1.60865 1.56681 0.961538 2.34131 0.961538H14.0479V24.0385H2.34131C1.56681 24.0385 0.936525 23.3913 0.936525 22.5962ZM28.0957 22.5962C28.0957 23.3913 27.4655 24.0385 26.6909 24.0385H14.9844V0.961538H26.6909C27.4655 0.961538 28.0957 1.60865 28.0957 2.40385V22.5962Z" fill="black"/>
<path id="Vector_2" d="M7.4922 7.21157C7.61207 7.21157 7.73195 7.16445 7.82326 7.0707L11.1011 3.70532L10.439 3.02551L7.4922 6.05099L6.41847 4.94859L5.75635 5.6284L7.16113 7.0707C7.25245 7.16445 7.37232 7.21157 7.4922 7.21157Z" fill="black"/>
<path id="Vector_3" d="M19.9981 7.55141L21.7742 5.72785L23.5503 7.55141L24.2125 6.8716L22.4363 5.04804L24.2125 3.22449L23.5503 2.54468L21.7742 4.36824L19.9981 2.54468L19.336 3.22449L21.1121 5.04804L19.336 6.8716L19.9981 7.55141Z" fill="black"/>
<path id="Vector_4" d="M4.21436 9.61536H2.34131C2.08283 9.61536 1.87305 9.83074 1.87305 10.0961V12.0192C1.87305 12.2846 2.08283 12.5 2.34131 12.5H4.21436C4.47284 12.5 4.68262 12.2846 4.68262 12.0192V10.0961C4.68262 9.83074 4.47284 9.61536 4.21436 9.61536ZM3.7461 11.5384H2.80957V10.5769H3.7461V11.5384ZM4.21436 13.4615H2.34131C2.08283 13.4615 1.87305 13.6769 1.87305 13.9423V15.8654C1.87305 16.1307 2.08283 16.3461 2.34131 16.3461H4.21436C4.47284 16.3461 4.68262 16.1307 4.68262 15.8654V13.9423C4.68262 13.6769 4.47284 13.4615 4.21436 13.4615ZM3.7461 15.3846H2.80957V14.423H3.7461V15.3846ZM4.21436 17.3077H2.34131C2.08283 17.3077 1.87305 17.523 1.87305 17.7884V19.7115C1.87305 19.9769 2.08283 20.1923 2.34131 20.1923H4.21436C4.47284 20.1923 4.68262 19.9769 4.68262 19.7115V17.7884C4.68262 17.523 4.47284 17.3077 4.21436 17.3077ZM3.7461 19.2307H2.80957V18.2692H3.7461V19.2307Z" fill="black"/>
<path id="Vector_5" d="M13.1113 9.61536H5.61914V10.5769H13.1113V9.61536Z" fill="black"/>
<path id="Vector_6" d="M13.1113 11.5385H5.61914V12.5H13.1113V11.5385Z" fill="black"/>
<path id="Vector_7" d="M18.2622 9.61536H16.3892C16.1307 9.61536 15.9209 9.83074 15.9209 10.0961V12.0192C15.9209 12.2846 16.1307 12.5 16.3892 12.5H18.2622C18.5207 12.5 18.7305 12.2846 18.7305 12.0192V10.0961C18.7305 9.83074 18.5207 9.61536 18.2622 9.61536ZM17.794 11.5384H16.8575V10.5769H17.794V11.5384ZM18.2622 13.4615H16.3892C16.1307 13.4615 15.9209 13.6769 15.9209 13.9423V15.8654C15.9209 16.1307 16.1307 16.3461 16.3892 16.3461H18.2622C18.5207 16.3461 18.7305 16.1307 18.7305 15.8654V13.9423C18.7305 13.6769 18.5207 13.4615 18.2622 13.4615ZM17.794 15.3846H16.8575V14.423H17.794V15.3846ZM18.2622 17.3077H16.3892C16.1307 17.3077 15.9209 17.523 15.9209 17.7884V19.7115C15.9209 19.9769 16.1307 20.1923 16.3892 20.1923H18.2622C18.5207 20.1923 18.7305 19.9769 18.7305 19.7115V17.7884C18.7305 17.523 18.5207 17.3077 18.2622 17.3077ZM17.794 19.2307H16.8575V18.2692H17.794V19.2307Z" fill="black"/>
<path id="Vector_8" d="M13.1113 13.4615H5.61914V14.4231H13.1113V13.4615Z" fill="black"/>
<path id="Vector_9" d="M13.1113 15.3846H5.61914V16.3462H13.1113V15.3846Z" fill="black"/>
<path id="Vector_10" d="M13.1113 17.3077H5.61914V18.2693H13.1113V17.3077Z" fill="black"/>
<path id="Vector_11" d="M13.1113 19.2308H5.61914V20.1924H13.1113V19.2308Z" fill="black"/>
<path id="Vector_12" d="M27.1592 9.61536H19.667V10.5769H27.1592V9.61536Z" fill="black"/>
<path id="Vector_13" d="M27.1592 11.5385H19.667V12.5H27.1592V11.5385Z" fill="black"/>
<path id="Vector_14" d="M27.1592 13.4615H19.667V14.4231H27.1592V13.4615Z" fill="black"/>
<path id="Vector_15" d="M27.1592 15.3846H19.667V16.3462H27.1592V15.3846Z" fill="black"/>
<path id="Vector_16" d="M27.1592 17.3077H19.667V18.2693H27.1592V17.3077Z" fill="black"/>
<path id="Vector_17" d="M27.1592 19.2308H19.667V20.1924H27.1592V19.2308Z" fill="black"/>
</g>
</svg>
