<svg width="36" height="36" viewBox="0 0 36 36" fill="none" xmlns="http://www.w3.org/2000/svg">
<g id="3977255671558096328 1">
<path id="Vector" d="M31.5 29.25H4.5V17.25L18 4.5L31.5 17.25V29.25Z" fill="#E8EAF6"/>
<g id="Group">
<path id="Vector_2" d="M29.25 15.75L25.5 12V6.75H29.25V15.75Z" fill="#C5CAE9"/>
<path id="Vector_3" d="M31.5 29.25H4.5V33H31.5V29.25Z" fill="#C5CAE9"/>
</g>
<path id="Vector_4" d="M18 3.225L3 17.175L4.5 18.825L18 6.3L31.5 18.825L33 17.175L18 3.225Z" fill="#B71C1C"/>
<path id="Vector_5" d="M22.5 21H13.5V33H22.5V21Z" fill="#D84315"/>
<path id="Vector_6" d="M20.25 12.75H15.75V17.25H20.25V12.75Z" fill="#01579B"/>
<path id="Vector_7" d="M20.625 26.625C20.4 26.625 20.25 26.775 20.25 27V28.5C20.25 28.725 20.4 28.875 20.625 28.875C20.85 28.875 21 28.725 21 28.5V27C21 26.775 20.85 26.625 20.625 26.625Z" fill="#FF8A65"/>
</g>
</svg>
