<svg width="54" height="54" viewBox="0 0 54 54" fill="none" xmlns="http://www.w3.org/2000/svg">
<g id="Home Icon Header">
<g id="Vector" filter="url(#filter0_b_595_22)">
<path d="M27 54C41.9117 54 54 41.9117 54 27C54 12.0883 41.9117 0 27 0C12.0883 0 0 12.0883 0 27C0 41.9117 12.0883 54 27 54Z" fill="url(#paint0_linear_595_22)" fill-opacity="0.55"/>
</g>
<path id="Vector_2" d="M17.25 37.1111H22.125V28.4444H31.875V37.1111H36.75V24.1111L27 17.6111L17.25 24.1111V37.1111ZM14 40V22.6667L27 14L40 22.6667V40H28.625V31.3333H25.375V40H14Z" fill="#797979"/>
</g>
<defs>
<filter id="filter0_b_595_22" x="-4" y="-4" width="62" height="62" filterUnits="userSpaceOnUse" color-interpolation-filters="sRGB">
<feFlood flood-opacity="0" result="BackgroundImageFix"/>
<feGaussianBlur in="BackgroundImageFix" stdDeviation="2"/>
<feComposite in2="SourceAlpha" operator="in" result="effect1_backgroundBlur_595_22"/>
<feBlend mode="normal" in="SourceGraphic" in2="effect1_backgroundBlur_595_22" result="shape"/>
</filter>
<linearGradient id="paint0_linear_595_22" x1="27" y1="-4.05" x2="27" y2="54" gradientUnits="userSpaceOnUse">
<stop stop-color="#B9B9B9"/>
<stop offset="0.926815" stop-color="white"/>
</linearGradient>
</defs>
</svg>
