<svg width="24" height="24" viewBox="0 0 24 24" fill="none" xmlns="http://www.w3.org/2000/svg">
<g id="Left Arrow" clip-path="url(#clip0_109_284)">
<g id="Layer 2">
<g id="arrow-left">
<path id="Vector" d="M13.54 17.9999C13.0667 18.0005 12.6076 17.8381 12.24 17.5399L7.14 13.3299C6.94001 13.1707 6.7785 12.9685 6.66749 12.7382C6.55648 12.5079 6.49883 12.2556 6.49883 11.9999C6.49883 11.7443 6.55648 11.492 6.66749 11.2617C6.7785 11.0314 6.94001 10.8292 7.14 10.6699L12.24 6.45995C12.547 6.21394 12.917 6.05913 13.3077 6.01316C13.6985 5.9672 14.0943 6.03191 14.45 6.19995C14.7592 6.33623 15.0226 6.55862 15.2088 6.84057C15.395 7.12251 15.4961 7.45209 15.5 7.78995V16.2099C15.4961 16.5478 15.395 16.8774 15.2088 17.1593C15.0226 17.4413 14.7592 17.6637 14.45 17.7999C14.1641 17.9299 13.854 17.9981 13.54 17.9999Z" fill="#828282"/>
</g>
</g>
</g>
<defs>
<clipPath id="clip0_109_284">
<rect width="24" height="24" fill="white"/>
</clipPath>
</defs>
</svg>
