<svg width="37" height="42" viewBox="0 0 37 42" fill="none" xmlns="http://www.w3.org/2000/svg">
<g filter="url(#filter0_d_948_7)">
<path d="M5.39313 30.88C7.01979 26.8267 8.79313 23.2667 10.7131 20.2C12.6598 17.1067 14.4998 14.36 16.2331 11.96C13.0331 10.9467 10.2198 10.1333 7.79313 9.52L10.7531 4.92C16.6198 6.04 23.3665 8.08 30.9931 11.04L28.2331 16.56C24.0731 14.8267 20.4731 13.4267 17.4331 12.36L20.8331 15.4C17.7665 19.56 15.0331 24.24 12.6331 29.44C11.8065 31.1733 10.9531 33.08 10.0731 35.16L5.39313 30.88Z" fill="url(#paint0_linear_948_7)"/>
</g>
<g filter="url(#filter1_d_948_7)">
<path fill-rule="evenodd" clip-rule="evenodd" d="M4.20707 31.1504L4.46507 30.5076C6.10945 26.4101 7.90842 22.7953 9.86554 19.6693L9.86677 19.6674C11.5251 17.0323 13.1089 14.6435 14.6181 12.5021C11.971 11.6824 9.61476 11.0119 7.54808 10.4895L6.19946 10.1486L10.2775 3.81114L10.9406 3.93774C16.884 5.07238 23.6909 7.13325 31.3549 10.1078L32.3786 10.5051L28.7101 17.8421L27.8485 17.4831C25.7702 16.6171 23.8343 15.8355 22.0404 15.138L22.1779 15.261L21.6381 15.9934C18.6156 20.0934 15.9157 24.714 13.5411 29.8591L13.5358 29.8705C12.7166 31.5883 11.8693 33.4811 10.9941 35.5496L10.4426 36.8531L4.20707 31.1504ZM17.4331 12.36C18.2348 12.6413 19.0754 12.9458 19.955 13.2734C22.4108 14.1882 25.1702 15.2838 28.2331 16.56L30.9931 11.04C30.6791 10.9181 30.3666 10.7978 30.0556 10.6791C22.8124 7.91357 16.3782 5.99388 10.7531 4.92L7.79312 9.52C8.12573 9.60406 8.4656 9.69189 8.81273 9.78347C10.7297 10.2892 12.8682 10.9095 15.2281 11.6444C15.5588 11.7473 15.8938 11.8525 16.2331 11.96C16.0306 12.2404 15.8266 12.5255 15.6212 12.8154C14.0684 15.0065 12.4324 17.4681 10.7131 20.2C8.79312 23.2667 7.01979 26.8267 5.39312 30.88L10.0731 35.16C10.2124 34.8307 10.3511 34.5058 10.489 34.1852C11.2226 32.4807 11.9373 30.8989 12.6331 29.44C15.0331 24.24 17.7665 19.56 20.8331 15.4L17.4331 12.36Z" fill="url(#paint1_linear_948_7)"/>
</g>
<defs>
<filter id="filter0_d_948_7" x="1.39313" y="1.92" width="33.6" height="38.24" filterUnits="userSpaceOnUse" color-interpolation-filters="sRGB">
<feFlood flood-opacity="0" result="BackgroundImageFix"/>
<feColorMatrix in="SourceAlpha" type="matrix" values="0 0 0 0 0 0 0 0 0 0 0 0 0 0 0 0 0 0 127 0" result="hardAlpha"/>
<feOffset dy="1"/>
<feGaussianBlur stdDeviation="2"/>
<feComposite in2="hardAlpha" operator="out"/>
<feColorMatrix type="matrix" values="0 0 0 0 0.4875 0 0 0 0 0.4875 0 0 0 0 0.4875 0 0 0 1 0"/>
<feBlend mode="normal" in2="BackgroundImageFix" result="effect1_dropShadow_948_7"/>
<feBlend mode="normal" in="SourceGraphic" in2="effect1_dropShadow_948_7" result="shape"/>
</filter>
<filter id="filter1_d_948_7" x="0.207069" y="0.811138" width="36.1716" height="41.0419" filterUnits="userSpaceOnUse" color-interpolation-filters="sRGB">
<feFlood flood-opacity="0" result="BackgroundImageFix"/>
<feColorMatrix in="SourceAlpha" type="matrix" values="0 0 0 0 0 0 0 0 0 0 0 0 0 0 0 0 0 0 127 0" result="hardAlpha"/>
<feOffset dy="1"/>
<feGaussianBlur stdDeviation="2"/>
<feComposite in2="hardAlpha" operator="out"/>
<feColorMatrix type="matrix" values="0 0 0 0 0.4875 0 0 0 0 0.4875 0 0 0 0 0.4875 0 0 0 1 0"/>
<feBlend mode="normal" in2="BackgroundImageFix" result="effect1_dropShadow_948_7"/>
<feBlend mode="normal" in="SourceGraphic" in2="effect1_dropShadow_948_7" result="shape"/>
</filter>
<linearGradient id="paint0_linear_948_7" x1="21.25" y1="2.875" x2="18.1133" y2="36.7512" gradientUnits="userSpaceOnUse">
<stop stop-color="#FB9012"/>
<stop offset="0.913511" stop-color="#FFF7EE"/>
</linearGradient>
<linearGradient id="paint1_linear_948_7" x1="22" y1="1.625" x2="17.8094" y2="38.083" gradientUnits="userSpaceOnUse">
<stop stop-color="#F8F8F8"/>
<stop offset="1" stop-color="#BDBDBD"/>
</linearGradient>
</defs>
</svg>
