<svg width="42" height="42" viewBox="0 0 42 42" fill="none" xmlns="http://www.w3.org/2000/svg">
<g id="20932152341636195259 1">
<path id="Vector" d="M8.53125 40.0312L1.96875 36.0938V5.90625L8.53125 9.84375V40.0312Z" fill="#299CFC"/>
<path id="Vector_2" d="M20.3438 36.0938L8.53125 40.0312V9.84375L20.3438 5.90625V36.0938Z" fill="#A3DAFF"/>
<path id="Vector_3" d="M32.1562 40.0312L20.3438 36.0938V5.90625L32.1562 9.84375V40.0312Z" fill="#299CFC"/>
<path id="Vector_4" d="M40.0312 36.0938L32.1562 40.0312V9.84375L40.0312 5.90625V36.0938Z" fill="#A3DAFF"/>
<path id="Vector_5" d="M8.53125 36.6647V40.0312L1.96875 36.0938V5.90625L3.9375 7.0875V26.6963C3.93806 28.591 4.34896 30.4631 5.14196 32.1839C5.93495 33.9047 7.09124 35.4333 8.53125 36.6647Z" fill="#0080FF"/>
<path id="Vector_6" d="M20.3438 32.5894V36.0937L8.53125 40.0312V9.84374L11.8125 8.7478V26.3353C11.8135 27.3652 12.0568 28.3803 12.5228 29.2987C12.9888 30.2171 13.6644 31.0129 14.4951 31.6218C15.3257 32.2307 16.2879 32.6356 17.3039 32.8036C18.32 32.9717 19.3613 32.8983 20.3438 32.5894Z" fill="#1EC0FF"/>
<path id="Vector_7" d="M32.1562 35.6475V40.0312L20.3438 36.0938V5.90625L23.625 7.00219V23.3494C23.6253 26.0242 24.4425 28.6351 25.9671 30.8328C27.4916 33.0306 29.651 34.7104 32.1562 35.6475Z" fill="#0080FF"/>
<path id="Vector_8" d="M40.0312 32.8519V36.0938L32.1562 40.0312V9.84375L34.7812 8.53125V27.6019C34.7828 28.9938 35.3364 30.3282 36.3207 31.3124C37.3049 32.2967 38.6393 32.8503 40.0312 32.8519Z" fill="#1EC0FF"/>
<path id="Vector_9" d="M8.53125 28.5863V40.0312L1.96875 36.0938V22.3125H4.59375L5.90625 26.25L8.53125 28.5863Z" fill="#8FBC94"/>
<path id="Vector_10" d="M20.3438 27.5625V36.0938L8.53125 40.0312V28.5863L11.8125 25.5938L13.125 31.5L16.4062 30.1875L17.0625 26.25L20.3438 27.5625Z" fill="#C5E99B"/>
<path id="Vector_11" d="M27.5625 34.7812L27.8709 38.6006L20.3438 36.0938V27.5625L24.2812 31.5V34.125L27.5625 34.7812Z" fill="#548687"/>
<path id="Vector_12" d="M8.53125 9.84375V14.4375C8.505 14.4703 5.90625 16.4062 5.90625 16.4062L3.9375 13.125L5.90625 11.1562L5.565 8.06531L8.53125 9.84375Z" fill="#8FBC94"/>
<path id="Vector_13" d="M20.3438 5.90625V17.8106L20.3306 17.8369L15.0938 17.0625L17.0625 15.75V13.7812L13.125 11.8125V14.4375L10.5 17.0625C10.5 17.0625 8.58375 14.4375 8.53125 14.4375V9.84375L20.3438 5.90625Z" fill="#C5E99B"/>
<path id="Vector_14" d="M16.4062 21L20.3438 21.6562V24.9375L17.0625 23.625L16.4062 21Z" fill="#F9D423"/>
<path id="Vector_15" d="M26.25 21.6562L23.625 24.9375H20.3438V21.6562L23.625 19.6875L26.25 21.6562Z" fill="#F9B53D"/>
<path id="Vector_16" d="M32.1562 9.84375V19.0312L29.5312 16.4062L26.25 17.7188L22.9688 13.125L20.3438 17.8106V5.90625L32.1562 9.84375Z" fill="#8FBC94"/>
<path id="Vector_17" d="M28.875 23.625L32.1562 24.9375V31.1653L29.5312 32.1562L26.25 26.9062L28.875 27.5625V23.625Z" fill="#F9B53D"/>
<path id="Vector_18" d="M40.0312 5.90625V10.5L36.75 11.1562V14.4375L35.4375 17.7188L32.1562 19.0312V9.84375L40.0312 5.90625Z" fill="#C5E99B"/>
<path id="Vector_19" d="M37.4062 21L40.0312 19.6875V32.8125L38.0625 33.4688L36.0938 30.1875L34.7812 34.125L32.1562 30.8438V28.5403V24.9375L34.7812 22.9688L37.4062 24.9375V21Z" fill="#EDE574"/>
<path id="Vector_20" d="M34.7812 17.9812L32.1562 19.0312V9.84375L34.7812 8.53125V17.9812Z" fill="#A8D38C"/>
<path id="Vector_21" d="M35.8838 30.8241L34.7812 34.125L32.1562 30.8438V24.9375L34.7812 22.9688V27.6019C34.7741 28.7697 35.1627 29.9054 35.8838 30.8241Z" fill="#F9D423"/>
<path id="Vector_22" d="M39.9263 32.8453L38.0625 33.4688L37.1831 31.9988C37.9994 32.534 38.9504 32.8274 39.9263 32.8453Z" fill="#A8D38C"/>
<path id="Vector_23" d="M22.9688 13.125L20.3438 17.8106V5.90625L23.625 7.00219V14.0438L22.9688 13.125Z" fill="#548687"/>
<path id="Vector_24" d="M23.7103 24.8259L23.625 24.9375H20.3438V21.6562L23.625 19.6875V23.3494C23.6236 23.8428 23.6521 24.3359 23.7103 24.8259Z" fill="#FC913A"/>
<path id="Vector_25" d="M8.53125 14.4375V9.84374L11.8125 8.7478V15.75L10.5 17.0625C10.5 17.0625 8.58375 14.4375 8.53125 14.4375Z" fill="#8FBC94"/>
<path id="Vector_26" d="M20.3438 32.5894V36.0938L8.53125 40.0312V28.5863L11.8125 25.5938V26.3353C11.8088 27.5057 12.1217 28.6554 12.7181 29.6625L13.125 31.5L13.9453 31.1719C14.7922 31.9512 15.8301 32.4928 16.9538 32.7418C18.0775 32.9907 19.247 32.9381 20.3438 32.5894Z" fill="#8FBC94"/>
<path id="Vector_27" d="M20.3438 32.5894V36.0938L8.53125 40.0312V28.5863L11.8125 25.5938V26.3353C11.8088 27.5057 12.1217 28.6554 12.7181 29.6625L13.125 31.5L13.9453 31.1719C14.7922 31.9512 15.8301 32.4928 16.9538 32.7418C18.0775 32.9907 19.247 32.9381 20.3438 32.5894Z" fill="#A8D38C"/>
<path id="Vector_28" d="M11.8125 8.7478V15.75L10.5 17.0625C10.5 17.0625 8.58375 14.4375 8.53125 14.4375V9.84374L11.8125 8.7478Z" fill="#A8D38C"/>
<path id="Vector_29" d="M8.53125 36.6647V40.0312L1.96875 36.0938V22.3125H3.9375V26.6962C3.93806 28.591 4.34896 30.4631 5.14196 32.1839C5.93495 33.9047 7.09124 35.4333 8.53125 36.6647Z" fill="#8FBC94"/>
<path id="Vector_30" d="M8.53125 36.6647V40.0312L1.96875 36.0938V22.3125H3.9375V26.6962C3.93806 28.591 4.34896 30.4631 5.14196 32.1839C5.93495 33.9047 7.09124 35.4333 8.53125 36.6647Z" fill="#548687"/>
<path id="Vector_31" d="M11.8125 34.7812C12.1749 34.7812 12.4688 34.4874 12.4688 34.125C12.4688 33.7626 12.1749 33.4688 11.8125 33.4688C11.4501 33.4688 11.1562 33.7626 11.1562 34.125C11.1562 34.4874 11.4501 34.7812 11.8125 34.7812Z" fill="#FF6464"/>
<path id="Vector_32" d="M17.0625 34.7812C17.4249 34.7812 17.7188 34.4874 17.7188 34.125C17.7188 33.7626 17.4249 33.4688 17.0625 33.4688C16.7001 33.4688 16.4062 33.7626 16.4062 34.125C16.4062 34.4874 16.7001 34.7812 17.0625 34.7812Z" fill="#FF6464"/>
<path id="Vector_33" d="M34.7812 28.2188C35.1437 28.2188 35.4375 27.9249 35.4375 27.5625C35.4375 27.2001 35.1437 26.9062 34.7812 26.9062C34.4188 26.9062 34.125 27.2001 34.125 27.5625C34.125 27.9249 34.4188 28.2188 34.7812 28.2188Z" fill="#FF8B7B"/>
<path id="Vector_34" d="M34.125 14.4375C34.4874 14.4375 34.7812 14.1437 34.7812 13.7812C34.7812 13.4188 34.4874 13.125 34.125 13.125C33.7626 13.125 33.4688 13.4188 33.4688 13.7812C33.4688 14.1437 33.7626 14.4375 34.125 14.4375Z" fill="#FF6464"/>
<path id="Vector_35" d="M23.625 10.5C23.9874 10.5 24.2812 10.2062 24.2812 9.84375C24.2812 9.4813 23.9874 9.1875 23.625 9.1875C23.2626 9.1875 22.9688 9.4813 22.9688 9.84375C22.9688 10.2062 23.2626 10.5 23.625 10.5Z" fill="#DB3056"/>
<path id="Vector_36" d="M26.9062 15.0938C27.2687 15.0938 27.5625 14.7999 27.5625 14.4375C27.5625 14.0751 27.2687 13.7812 26.9062 13.7812C26.5438 13.7812 26.25 14.0751 26.25 14.4375C26.25 14.7999 26.5438 15.0938 26.9062 15.0938Z" fill="#DB3056"/>
<path id="Vector_37" d="M13.7812 22.3125C14.1437 22.3125 14.4375 22.0187 14.4375 21.6562C14.4375 21.2938 14.1437 21 13.7812 21C13.4188 21 13.125 21.2938 13.125 21.6562C13.125 22.0187 13.4188 22.3125 13.7812 22.3125Z" fill="#FF8B7B"/>
<path id="Vector_38" d="M17.0625 11.1562C17.4249 11.1562 17.7188 10.8624 17.7188 10.5C17.7188 10.1376 17.4249 9.84375 17.0625 9.84375C16.7001 9.84375 16.4062 10.1376 16.4062 10.5C16.4062 10.8624 16.7001 11.1562 17.0625 11.1562Z" fill="#FF8B7B"/>
<path id="Vector_39" d="M5.25 30.7564C5.61243 30.7564 5.90625 30.4626 5.90625 30.1002C5.90625 29.7378 5.61243 29.4439 5.25 29.4439C4.88757 29.4439 4.59375 29.7378 4.59375 30.1002C4.59375 30.4626 4.88757 30.7564 5.25 30.7564Z" fill="#DB3056"/>
<path id="Vector_40" d="M4.59375 35.4375C4.95618 35.4375 5.25 35.1437 5.25 34.7812C5.25 34.4188 4.95618 34.125 4.59375 34.125C4.23132 34.125 3.9375 34.4188 3.9375 34.7812C3.9375 35.1437 4.23132 35.4375 4.59375 35.4375Z" fill="#AF274B"/>
<path id="Vector_41" d="M34.8206 28.2122C34.8082 28.2175 34.7947 28.2198 34.7812 28.2188C34.6072 28.2188 34.4403 28.1496 34.3172 28.0265C34.1942 27.9035 34.125 27.7365 34.125 27.5625C34.125 27.3885 34.1942 27.2215 34.3172 27.0985C34.4403 26.9754 34.6072 26.9062 34.7812 26.9062V27.6019C34.7809 27.806 34.794 28.0099 34.8206 28.2122Z" fill="#FF6464"/>
<path id="Vector_42" d="M23.625 9.1875V10.5C23.451 10.5 23.284 10.4308 23.161 10.3078C23.0379 10.1847 22.9688 10.0178 22.9688 9.84375C22.9688 9.66971 23.0379 9.50276 23.161 9.37972C23.284 9.25667 23.451 9.1875 23.625 9.1875Z" fill="#AF274B"/>
<path id="Vector_43" d="M28.2188 1.96875C27.1745 1.96875 26.173 2.38359 25.4345 3.12202C24.6961 3.86044 24.2812 4.86196 24.2812 5.90625C24.2812 9.1875 28.2188 12.4688 28.2188 12.4688C28.2188 12.4688 32.1562 9.1875 32.1562 5.90625C32.1562 4.86196 31.7414 3.86044 31.003 3.12202C30.2645 2.38359 29.263 1.96875 28.2188 1.96875ZM28.2188 7.21875C27.9591 7.21875 27.7054 7.14177 27.4896 6.99753C27.2738 6.85335 27.1055 6.64834 27.0061 6.40852C26.9068 6.16869 26.8809 5.90479 26.9314 5.65019C26.9821 5.3956 27.1071 5.16173 27.2907 4.97817C27.4742 4.79462 27.7081 4.66961 27.9627 4.61897C28.2173 4.56833 28.4812 4.59432 28.721 4.69366C28.9608 4.793 29.1658 4.96122 29.31 5.17706C29.4543 5.39291 29.5312 5.64666 29.5312 5.90625C29.5312 6.25434 29.393 6.58816 29.1468 6.83432C28.9007 7.08048 28.5668 7.21875 28.2188 7.21875Z" fill="#FF6464"/>
<path id="Vector_44" d="M26.8209 7.42868C25.9284 6.05715 25.2787 4.4034 25.7578 2.83496C25.2972 3.20341 24.9253 3.67075 24.6697 4.20238C24.4141 4.73402 24.2813 5.31633 24.2812 5.90621C24.2812 9.18743 28.2187 12.4687 28.2187 12.4687C29.6373 11.2507 30.7996 9.76283 31.6378 8.09149C31.2888 8.39028 30.8804 8.6117 30.4396 8.74111C29.9988 8.87059 29.5356 8.90511 29.0804 8.8425C28.6253 8.7799 28.1886 8.62148 27.7991 8.37781C27.4097 8.13408 27.0763 7.81062 26.8209 7.42868Z" fill="#DB3056"/>
</g>
</svg>
