<svg width="25" height="27" viewBox="0 0 25 27" fill="none" xmlns="http://www.w3.org/2000/svg">
<path id="Vector" d="M12.5 13.5C13.3594 13.5 14.0951 13.2356 14.707 12.7069C15.319 12.1781 15.625 11.5425 15.625 10.8C15.625 10.0575 15.319 9.42188 14.707 8.89312C14.0951 8.36438 13.3594 8.1 12.5 8.1C11.6406 8.1 10.9049 8.36438 10.293 8.89312C9.68099 9.42188 9.375 10.0575 9.375 10.8C9.375 11.5425 9.68099 12.1781 10.293 12.7069C10.9049 13.2356 11.6406 13.5 12.5 13.5ZM12.5 23.4225C15.6771 20.9025 18.0339 18.6131 19.5703 16.5544C21.1068 14.4956 21.875 12.6675 21.875 11.07C21.875 8.6175 20.9701 6.60938 19.1602 5.04563C17.3503 3.48188 15.1302 2.7 12.5 2.7C9.86979 2.7 7.64974 3.48188 5.83984 5.04563C4.02995 6.60938 3.125 8.6175 3.125 11.07C3.125 12.6675 3.89323 14.4956 5.42969 16.5544C6.96615 18.6131 9.32292 20.9025 12.5 23.4225ZM12.5 27C8.30729 23.9175 5.17578 21.0544 3.10547 18.4106C1.03516 15.7669 0 13.32 0 11.07C0 7.695 1.25651 5.00625 3.76953 3.00375C6.28255 1.00125 9.19271 0 12.5 0C15.8073 0 18.7174 1.00125 21.2305 3.00375C23.7435 5.00625 25 7.695 25 11.07C25 13.32 23.9648 15.7669 21.8945 18.4106C19.8242 21.0544 16.6927 23.9175 12.5 27Z" fill="#797979"/>
</svg>
