<svg width="26" height="26" viewBox="0 0 26 26" fill="none" xmlns="http://www.w3.org/2000/svg">
<path id="Vector" d="M19.7222 13.5V15.3889H14.9444V13.5H19.7222ZM14.9444 23.6111H16.8333V25.5H14.9444V23.6111ZM22.6111 12.5H20.7222V10.6111H22.6111V12.5ZM23.1111 23.6111H25.5V25.5H20.7222V21.6667V21.1667H20.2222H17.8333V19.2778H22.6111V23.1111V23.6111H23.1111ZM23.6111 13.5H25.5V18.2778H23.6111V13.5ZM6.27778 12.5V10.6111H13.9444V12.5H11.5556H11.0556V13V15.3889H9.16667V13V12.5H8.66667H6.27778ZM2.38889 12.5H0.5V10.6111H2.38889V12.5ZM3.38889 13.5H5.27778V15.3889H3.38889V13.5ZM13.9444 16.3889V22.6111H12.0556V16.3889H13.9444ZM13 6.27778H15.3889V8.16667H10.6111V3.38889H12.5V5.77778V6.27778H13ZM13.5 2.38889V0.5H15.3889V2.38889H13.5ZM1.66667 6.5V7H2.16667H6.5H7V6.5V2.16667V1.66667H6.5H2.16667H1.66667V2.16667V6.5ZM1.66667 23.8333V24.3333H2.16667H6.5H7V23.8333V19.5V19H6.5H2.16667H1.66667V19.5V23.8333ZM19 6.5V7H19.5H23.8333H24.3333V6.5V2.16667V1.66667H23.8333H19.5H19V2.16667V6.5ZM0.5 8.16667V0.5H8.16667V8.16667H0.5ZM0.5 25.5V17.8333H8.16667V25.5H0.5ZM17.8333 8.16667V0.5H25.5V8.16667H17.8333ZM3.75 4.91667V3.75H4.91667V4.91667H3.75ZM3.75 22.25V21.0833H4.91667V22.25H3.75ZM21.0833 4.91667V3.75H22.25V4.91667H21.0833Z" fill="black" stroke="#707070"/>
</svg>
