<svg width="26" height="26" viewBox="0 0 26 26" fill="none" xmlns="http://www.w3.org/2000/svg">
<path id="Vector" d="M14.4444 26V23.1111H17.3333V26H14.4444ZM11.5556 23.1111V15.8889H14.4444V23.1111H11.5556ZM23.1111 18.7778V13H26V18.7778H23.1111ZM20.2222 13V10.1111H23.1111V13H20.2222ZM2.88889 15.8889V13H5.77778V15.8889H2.88889ZM0 13V10.1111H2.88889V13H0ZM13 2.88889V0H15.8889V2.88889H13ZM2.16667 6.5H6.5V2.16667H2.16667V6.5ZM0 8.66667V0H8.66667V8.66667H0ZM2.16667 23.8333H6.5V19.5H2.16667V23.8333ZM0 26V17.3333H8.66667V26H0ZM19.5 6.5H23.8333V2.16667H19.5V6.5ZM17.3333 8.66667V0H26V8.66667H17.3333ZM20.2222 26V21.6667H17.3333V18.7778H23.1111V23.1111H26V26H20.2222ZM14.4444 15.8889V13H20.2222V15.8889H14.4444ZM8.66667 15.8889V13H5.77778V10.1111H14.4444V13H11.5556V15.8889H8.66667ZM10.1111 8.66667V2.88889H13V5.77778H15.8889V8.66667H10.1111ZM3.25 5.41667V3.25H5.41667V5.41667H3.25ZM3.25 22.75V20.5833H5.41667V22.75H3.25ZM20.5833 5.41667V3.25H22.75V5.41667H20.5833Z" fill="#ACACAC"/>
</svg>
