<svg width="36" height="34" viewBox="0 0 36 34" fill="none" xmlns="http://www.w3.org/2000/svg">
<g id="14907813511667366129 1" clip-path="url(#clip0_324_131)">
<g id="Layer_x0020_1">
<path id="Vector" fill-rule="evenodd" clip-rule="evenodd" d="M8.33355 29.582L27.6629 29.5827V5.25611C27.6629 4.13137 26.6055 3.2192 25.3101 3.2192H10.6861C9.38698 3.2192 8.33334 4.13466 8.33334 5.25611V29.582H8.33355Z" fill="#5798DC"/>
<path id="Vector_2" fill-rule="evenodd" clip-rule="evenodd" d="M24.9996 34.0001H10.9969C9.14988 34.0001 7.65179 32.6999 7.65179 31.1007V5.72954C7.65179 4.13055 9.15368 2.8336 10.9969 2.8336H24.9996C26.8465 2.8336 28.3484 4.13384 28.3484 5.72954V31.1011C28.3484 32.6999 26.8465 34.0003 24.9996 34.0003V34.0001ZM8.74403 29.0222L27.2524 29.0229V5.72954C27.2524 4.65247 26.2399 3.77901 24.9996 3.77901H10.9969C9.75295 3.77901 8.74403 4.65557 8.74403 5.72954V29.0222Z" fill="#4A5254"/>
<path id="Vector_3" fill-rule="evenodd" clip-rule="evenodd" d="M19.1359 32.6866H16.8603C15.0716 32.6866 15.0756 30.3356 16.8603 30.3356L19.1359 30.3358C20.9234 30.3358 20.9234 32.6866 19.1359 32.6866Z" fill="#FFA725"/>
<path id="Vector_4" fill-rule="evenodd" clip-rule="evenodd" d="M20.6947 6.53389H15.3015C14.9032 6.53389 14.3647 6.36989 14.0766 5.59469L13.2765 3.45058C13.1615 3.14013 13.4326 2.83334 13.796 2.83334H22.2004C22.5713 2.83334 22.832 3.14817 22.72 3.45058L21.9199 5.59469C21.6315 6.36953 21.093 6.53389 20.6947 6.53389Z" fill="#4A5254"/>
<path id="Vector_5" fill-rule="evenodd" clip-rule="evenodd" d="M27.2524 29.0228V5.72946C27.2524 5.2983 27.0902 4.90002 26.816 4.57715L8.74719 29.0221L27.2524 29.0228Z" fill="#4B8BCF"/>
<path id="Vector_6" fill-rule="evenodd" clip-rule="evenodd" d="M15.2023 16.9432H13.3539C12.5454 16.9432 11.8891 16.3751 11.8891 15.6751V14.0469C11.8891 13.347 12.5454 12.7788 13.3539 12.7788L15.2023 12.779C16.0109 12.779 16.6671 13.3471 16.6671 14.0471V15.6753C16.67 16.3753 16.0109 16.9432 15.2023 16.9432ZM13.3539 13.5093C13.0111 13.5093 12.7329 13.7502 12.7329 14.0469C12.7329 16.5245 12.3728 16.2128 15.2023 16.2128C15.5451 16.2128 15.8233 15.9719 15.8233 15.6751C15.8233 13.1976 16.1834 13.5093 13.3539 13.5093Z" fill="white"/>
<path id="Vector_7" fill-rule="evenodd" clip-rule="evenodd" d="M22.6461 16.9432H20.7977C19.9892 16.9432 19.3329 16.3751 19.3329 15.6751V14.0469C19.3329 13.347 19.9921 12.7788 20.7977 12.7788L22.6461 12.779C23.4547 12.779 24.1109 13.3471 24.1109 14.0471V15.6753C24.1109 16.3753 23.4547 16.9432 22.6461 16.9432ZM20.7977 13.5093C20.4549 13.5093 20.1767 13.7502 20.1767 14.0469C20.1767 16.5245 19.8166 16.2128 22.6461 16.2128C22.9889 16.2128 23.2671 15.9719 23.2671 15.6751C23.2671 13.1976 23.6272 13.5093 20.7977 13.5093Z" fill="white"/>
<path id="Vector_8" fill-rule="evenodd" clip-rule="evenodd" d="M15.2023 23.5043H13.3539C12.5454 23.5043 11.8891 22.9336 11.8891 22.2362V20.608C11.8891 19.908 12.5454 19.3399 13.3539 19.3399H15.2023C16.0109 19.3399 16.6671 19.9106 16.6671 20.608V22.2362C16.67 22.9336 16.0109 23.5043 15.2023 23.5043ZM13.3539 20.0678C13.0111 20.0678 12.7329 20.3087 12.7329 20.6054C12.7329 23.083 12.3728 22.7713 15.2023 22.7713C15.5451 22.7713 15.8233 22.5304 15.8233 22.2336C15.8233 19.7561 16.1834 20.0678 13.3539 20.0678Z" fill="white"/>
<path id="Vector_9" fill-rule="evenodd" clip-rule="evenodd" d="M22.6461 23.5043H20.7977C19.9892 23.5043 19.3329 22.9336 19.3329 22.2362V20.608C19.3329 19.908 19.9921 19.3399 20.7977 19.3399H22.6461C23.4547 19.3399 24.1109 19.9106 24.1109 20.608V22.2362C24.1109 22.9336 23.4547 23.5043 22.6461 23.5043ZM20.7977 20.0678C20.4549 20.0678 20.1767 20.3087 20.1767 20.6054C20.1767 23.083 19.8166 22.7713 22.6461 22.7713C22.9889 22.7713 23.2671 22.5304 23.2671 22.2336C23.2671 19.7561 23.6272 20.0678 20.7977 20.0678Z" fill="white"/>
<path id="Vector_10" fill-rule="evenodd" clip-rule="evenodd" d="M17.9914 18.5055H15.8147C15.2587 18.5055 15.2584 17.7751 15.8147 17.7751H17.5695V13.2379C17.5695 12.7566 18.4132 12.7564 18.4132 13.2379V18.1403C18.413 18.3432 18.2228 18.5055 17.9914 18.5055Z" fill="white"/>
<path id="Vector_11" fill-rule="evenodd" clip-rule="evenodd" d="M14.4875 18.5055H12.3108C11.7548 18.5055 11.7546 17.7751 12.3108 17.7751H14.4875C15.0435 17.7751 15.0437 18.5055 14.4875 18.5055Z" fill="white"/>
<path id="Vector_12" fill-rule="evenodd" clip-rule="evenodd" d="M23.689 18.5055H19.7664C19.2112 18.5055 19.211 17.7751 19.7664 17.7751H23.689C24.2429 17.7751 24.2465 18.5055 23.689 18.5055Z" fill="white"/>
<path id="Vector_13" fill-rule="evenodd" clip-rule="evenodd" d="M17.9854 23.3951C17.7511 23.3951 17.5636 23.2304 17.5636 23.0299V19.9055C17.5636 19.4248 18.4073 19.4246 18.4073 19.9055V23.0299C18.4073 23.2327 18.2198 23.3951 17.9854 23.3951Z" fill="white"/>
<path id="Vector_14" fill-rule="evenodd" clip-rule="evenodd" d="M10.032 13.981C9.79768 13.981 9.61015 13.8187 9.61015 13.6158V10.7602C9.61015 10.5573 9.79768 10.395 10.032 10.395H13.2836C13.8397 10.395 13.8399 11.1254 13.2836 11.1254H10.4539V13.6134C10.4539 13.8163 10.2664 13.981 10.032 13.981Z" fill="white"/>
<path id="Vector_15" fill-rule="evenodd" clip-rule="evenodd" d="M25.8216 13.981C25.5902 13.981 25.3997 13.8187 25.3997 13.6158V11.1278L22.57 11.128C22.0146 11.128 22.0146 10.3975 22.57 10.3975H25.8216C26.053 10.3975 26.2435 10.5599 26.2435 10.7627V13.6158C26.2435 13.8161 26.0559 13.981 25.8216 13.981Z" fill="white"/>
<path id="Vector_16" fill-rule="evenodd" clip-rule="evenodd" d="M13.2836 25.8856H10.032C9.79768 25.8856 9.61015 25.7209 9.61015 25.5204V22.6673C9.61015 22.1867 10.4539 22.1865 10.4539 22.6673V25.1553H13.2836C13.839 25.1553 13.8393 25.8856 13.2836 25.8856Z" fill="white"/>
<path id="Vector_17" fill-rule="evenodd" clip-rule="evenodd" d="M25.8216 25.8856H22.57C22.0154 25.8856 22.0152 25.1552 22.57 25.1552L25.3999 25.1553V22.6674C25.3999 22.1873 26.2437 22.1871 26.2437 22.6674V25.5204C26.2435 25.7209 26.0562 25.8856 25.8216 25.8856Z" fill="white"/>
</g>
</g>
<defs>
<clipPath id="clip0_324_131">
<rect width="36" height="34" fill="white"/>
</clipPath>
</defs>
</svg>
