<svg width="86" height="86" viewBox="0 0 86 86" fill="none" xmlns="http://www.w3.org/2000/svg">
<g id="Location icon">
<g id="Vector" filter="url(#filter0_d_597_4)">
<path d="M43 74C60.1208 74 74 60.1208 74 43C74 25.8792 60.1208 12 43 12C25.8792 12 12 25.8792 12 43C12 60.1208 25.8792 74 43 74Z" fill="#F9F9F9"/>
</g>
<path id="Vector_2" d="M41.0845 56.5845V55.169C38.1355 54.8387 35.6052 53.6178 33.4937 51.5063C31.3822 49.3948 30.1613 46.8645 29.8311 43.9155H28.4155C28.0145 43.9155 27.6783 43.7799 27.407 43.5086C27.1357 43.2373 27 42.9011 27 42.5C27 42.0989 27.1357 41.7627 27.407 41.4914C27.6783 41.2201 28.0145 41.0845 28.4155 41.0845H29.8311C30.1613 38.1355 31.3822 35.6052 33.4937 33.4937C35.6052 31.3822 38.1355 30.1613 41.0845 29.8311V28.4155C41.0845 28.0145 41.2201 27.6783 41.4914 27.407C41.7627 27.1357 42.0989 27 42.5 27C42.9011 27 43.2373 27.1357 43.5086 27.407C43.7799 27.6783 43.9155 28.0145 43.9155 28.4155V29.8311C46.8645 30.1613 49.3948 31.3822 51.5063 33.4937C53.6178 35.6052 54.8387 38.1355 55.169 41.0845H56.5845C56.9855 41.0845 57.3217 41.2201 57.593 41.4914C57.8643 41.7627 58 42.0989 58 42.5C58 42.9011 57.8643 43.2373 57.593 43.5086C57.3217 43.7799 56.9855 43.9155 56.5845 43.9155H55.169C54.8387 46.8645 53.6178 49.3948 51.5063 51.5063C49.3948 53.6178 46.8645 54.8387 43.9155 55.169V56.5845C43.9155 56.9855 43.7799 57.3217 43.5086 57.593C43.2373 57.8643 42.9011 58 42.5 58C42.0989 58 41.7627 57.8643 41.4914 57.593C41.2201 57.3217 41.0845 56.9855 41.0845 56.5845ZM42.5 52.4087C45.2367 52.4087 47.5723 51.4414 49.5069 49.5069C51.4414 47.5723 52.4087 45.2367 52.4087 42.5C52.4087 39.7633 51.4414 37.4277 49.5069 35.4932C47.5723 33.5586 45.2367 32.5913 42.5 32.5913C39.7633 32.5913 37.4277 33.5586 35.4932 35.4932C33.5586 37.4277 32.5913 39.7633 32.5913 42.5C32.5913 45.2367 33.5586 47.5723 35.4932 49.5069C37.4277 51.4414 39.7633 52.4087 42.5 52.4087ZM42.5 48.1621C40.9429 48.1621 39.61 47.6077 38.5011 46.4989C37.3923 45.39 36.8379 44.0571 36.8379 42.5C36.8379 40.9429 37.3923 39.61 38.5011 38.5011C39.61 37.3923 40.9429 36.8379 42.5 36.8379C44.0571 36.8379 45.39 37.3923 46.4989 38.5011C47.6077 39.61 48.1621 40.9429 48.1621 42.5C48.1621 44.0571 47.6077 45.39 46.4989 46.4989C45.39 47.6077 44.0571 48.1621 42.5 48.1621ZM42.5 45.3311C43.2785 45.3311 43.945 45.0538 44.4994 44.4994C45.0538 43.945 45.3311 43.2785 45.3311 42.5C45.3311 41.7215 45.0538 41.055 44.4994 40.5006C43.945 39.9462 43.2785 39.669 42.5 39.669C41.7215 39.669 41.055 39.9462 40.5006 40.5006C39.9462 41.055 39.669 41.7215 39.669 42.5C39.669 43.2785 39.9462 43.945 40.5006 44.4994C41.055 45.0538 41.7215 45.3311 42.5 45.3311Z" fill="#2F6CA5"/>
</g>
<defs>
<filter id="filter0_d_597_4" x="0.7" y="0.7" width="84.6" height="84.6" filterUnits="userSpaceOnUse" color-interpolation-filters="sRGB">
<feFlood flood-opacity="0" result="BackgroundImageFix"/>
<feColorMatrix in="SourceAlpha" type="matrix" values="0 0 0 0 0 0 0 0 0 0 0 0 0 0 0 0 0 0 127 0" result="hardAlpha"/>
<feOffset/>
<feGaussianBlur stdDeviation="5.65"/>
<feComposite in2="hardAlpha" operator="out"/>
<feColorMatrix type="matrix" values="0 0 0 0 0.766667 0 0 0 0 0.766667 0 0 0 0 0.766667 0 0 0 1 0"/>
<feBlend mode="normal" in2="BackgroundImageFix" result="effect1_dropShadow_597_4"/>
<feBlend mode="normal" in="SourceGraphic" in2="effect1_dropShadow_597_4" result="shape"/>
</filter>
</defs>
</svg>
