<svg width="103" height="102" viewBox="0 0 103 102" fill="none" xmlns="http://www.w3.org/2000/svg">
<path fill-rule="evenodd" clip-rule="evenodd" d="M100 3H60C45.7731 3 35.4046 3.00637 27.4816 4.0716C19.6448 5.12522 14.6512 7.16503 10.9081 10.9081C7.16503 14.6512 5.12522 19.6448 4.0716 27.4816C3.00637 35.4046 3 45.7731 3 60V99H43C57.2269 99 67.5954 98.9936 75.5184 97.9284C83.3552 96.8748 88.3488 94.835 92.0919 91.0919C95.835 87.3488 97.8748 82.3552 98.9284 74.5184C99.9936 66.5954 100 56.2269 100 42V3ZM8.7868 8.7868C0 17.5736 0 31.7157 0 60V102H43C71.2843 102 85.4264 102 94.2132 93.2132C103 84.4264 103 70.2843 103 42V0H60C31.7157 0 17.5736 0 8.7868 8.7868Z" fill="url(#paint0_linear_948_40)"/>
<defs>
<linearGradient id="paint0_linear_948_40" x1="103" y1="3.5" x2="4.50001" y2="96.5" gradientUnits="userSpaceOnUse">
<stop stop-color="#828282"/>
<stop offset="1" stop-color="white"/>
</linearGradient>
</defs>
</svg>
