<svg width="71" height="81" viewBox="0 0 71 81" fill="none" xmlns="http://www.w3.org/2000/svg">
<g filter="url(#filter0_d_948_48)">
<path d="M4.7435 65.512C8.6475 55.784 12.9035 47.24 17.5115 39.88C22.1835 32.456 26.5995 25.864 30.7595 20.104C23.0795 17.672 16.3275 15.72 10.5035 14.248L17.6075 3.20801C31.6875 5.89601 47.8795 10.792 66.1835 17.896L59.5595 31.144C49.5755 26.984 40.9355 23.624 33.6395 21.064L41.7995 28.36C34.4395 38.344 27.8795 49.576 22.1195 62.056C20.1355 66.216 18.0875 70.792 15.9755 75.784L4.7435 65.512Z" fill="url(#paint0_linear_948_48)"/>
</g>
<defs>
<filter id="filter0_d_948_48" x="0.7435" y="0.208008" width="69.44" height="80.5762" filterUnits="userSpaceOnUse" color-interpolation-filters="sRGB">
<feFlood flood-opacity="0" result="BackgroundImageFix"/>
<feColorMatrix in="SourceAlpha" type="matrix" values="0 0 0 0 0 0 0 0 0 0 0 0 0 0 0 0 0 0 127 0" result="hardAlpha"/>
<feOffset dy="1"/>
<feGaussianBlur stdDeviation="2"/>
<feComposite in2="hardAlpha" operator="out"/>
<feColorMatrix type="matrix" values="0 0 0 0 0.4875 0 0 0 0 0.4875 0 0 0 0 0.4875 0 0 0 1 0"/>
<feBlend mode="normal" in2="BackgroundImageFix" result="effect1_dropShadow_948_48"/>
<feBlend mode="normal" in="SourceGraphic" in2="effect1_dropShadow_948_48" result="shape"/>
</filter>
<linearGradient id="paint0_linear_948_48" x1="43.25" y1="-2.49999" x2="35.5107" y2="78.7629" gradientUnits="userSpaceOnUse">
<stop stop-color="#FB9012"/>
<stop offset="0.913511" stop-color="#FFF7EE"/>
</linearGradient>
</defs>
</svg>
