<svg width="58" height="58" viewBox="0 0 58 58" fill="none" xmlns="http://www.w3.org/2000/svg">
<g id="Group 5">
<g id="Group 4">
<path id="Vector" d="M29 58C45.0163 58 58 45.0163 58 29C58 12.9837 45.0163 0 29 0C12.9837 0 0 12.9837 0 29C0 45.0163 12.9837 58 29 58Z" fill="url(#paint0_linear_324_821)"/>
</g>
<g id="Layer_x0020_1">
<path id="Vector_2" fill-rule="evenodd" clip-rule="evenodd" d="M42.1552 44.988H16.506C16.2233 44.988 16 44.7992 16 44.5641V14.4222C16 14.1871 16.2233 14 16.506 14H42.1552C42.4359 14 42.6612 14.1871 42.6612 14.4222V44.5641C42.6612 44.7992 42.4359 44.988 42.1552 44.988ZM39.7708 42.2093H18.8966C18.6139 42.2093 18.3906 42.0205 18.3906 41.7853C18.3906 41.5485 18.6139 41.3614 18.8966 41.3614H39.7708C40.0514 41.3614 40.2768 41.5485 40.2768 41.7853C40.2768 42.0205 40.0453 42.2093 39.7708 42.2093ZM30.9418 23.9271C30.19 23.9271 29.5836 23.4191 29.5836 22.7892C29.5836 22.1593 30.19 21.6513 30.9418 21.6513C31.6915 21.6513 32.2999 22.1593 32.2999 22.7892C32.2999 23.4191 31.6915 23.9271 30.9418 23.9271ZM30.9418 22.4992C30.7451 22.4992 30.5935 22.6262 30.5935 22.7892C30.5935 22.9471 30.7533 23.0793 30.9418 23.0793C31.1282 23.0793 31.288 22.9471 31.288 22.7892C31.288 22.6262 31.1364 22.4992 30.9418 22.4992ZM27.4286 20.5786C26.6788 20.5786 26.0704 20.0706 26.0704 19.4407C26.0704 18.8125 26.6788 18.3028 27.4286 18.3028C28.1742 18.3028 28.7806 18.8125 28.7806 19.4407C28.7806 20.0706 28.1804 20.5786 27.4286 20.5786ZM27.4286 19.1506C27.2422 19.1506 27.0824 19.2845 27.0824 19.4407C27.0824 19.8252 27.7686 19.8234 27.7686 19.4407C27.7686 19.2845 27.617 19.1506 27.4286 19.1506ZM28.166 23.6131C27.8116 23.6131 27.5556 23.299 27.7051 23.0192L30.0384 18.5087C30.1469 18.2976 30.4501 18.1947 30.7021 18.2908C30.9561 18.3817 31.079 18.6358 30.9622 18.8486L28.629 23.3573C28.5491 23.5152 28.3606 23.6131 28.166 23.6131ZM29.3296 26.0519C25.9619 26.0519 23.2169 23.7521 23.2169 20.9305C23.2169 18.1088 25.9619 15.809 29.3296 15.809C32.6973 15.809 35.4423 18.1088 35.4423 20.9305C35.4423 23.7521 32.7035 26.0519 29.3296 26.0519ZM29.3296 16.6568C26.519 16.6568 24.2288 18.5757 24.2288 20.9305C24.2288 23.2852 26.519 25.2041 29.3296 25.2041C32.1401 25.2041 34.4303 23.2921 34.4303 20.9305C34.4303 18.5688 32.1401 16.6568 29.3296 16.6568ZM39.7708 38.6977H18.8966C18.6139 38.6977 18.3906 38.5106 18.3906 38.2738C18.3906 38.0386 18.6139 37.8498 18.8966 37.8498H39.7708C40.0514 37.8498 40.2768 38.0386 40.2768 38.2738C40.2768 38.5106 40.0453 38.6977 39.7708 38.6977ZM39.7708 35.181H18.8966C18.6139 35.181 18.3906 34.9922 18.3906 34.7571C18.3906 34.5202 18.6139 34.3331 18.8966 34.3331H39.7708C40.0514 34.3331 40.2768 34.5202 40.2768 34.7571C40.2768 34.9922 40.0453 35.181 39.7708 35.181ZM39.7708 31.6694H18.8966C18.6139 31.6694 18.3906 31.4823 18.3906 31.2455C18.3906 31.0104 18.6139 30.8216 18.8966 30.8216H39.7708C40.0514 30.8216 40.2768 31.0104 40.2768 31.2455C40.2768 31.4823 40.0453 31.6694 39.7708 31.6694ZM39.7708 28.1578H18.8966C18.6139 28.1578 18.3906 27.9708 18.3906 27.7339C18.3906 27.4988 18.6139 27.3117 18.8966 27.3117H39.7708C40.0514 27.3117 40.2768 27.4988 40.2768 27.7339C40.2768 27.9708 40.0453 28.1578 39.7708 28.1578ZM17.0099 44.1401H41.6493V14.8461H17.0099V44.1401Z" fill="#1B74B9"/>
<path id="Vector_3" fill-rule="evenodd" clip-rule="evenodd" d="M18.8966 27.3122H39.7708C40.0514 27.3122 40.2768 27.4993 40.2768 27.7344C40.2768 27.9712 40.0453 28.1583 39.7708 28.1583H18.8966C18.6139 28.1583 18.3906 27.9712 18.3906 27.7344C18.3906 27.4993 18.6139 27.3122 18.8966 27.3122ZM18.8966 30.822H39.7708C40.0514 30.822 40.2768 31.0108 40.2768 31.246C40.2768 31.4828 40.0453 31.6699 39.7708 31.6699H18.8966C18.6139 31.6699 18.3906 31.4828 18.3906 31.246C18.3906 31.0108 18.6139 30.822 18.8966 30.822ZM18.8966 34.3336H39.7708C40.0514 34.3336 40.2768 34.5207 40.2768 34.7575C40.2768 34.9927 40.0453 35.1815 39.7708 35.1815H18.8966C18.6139 35.1815 18.3906 34.9927 18.3906 34.7575C18.3906 34.5207 18.6139 34.3336 18.8966 34.3336ZM18.8966 37.8503H39.7708C40.0514 37.8503 40.2768 38.0391 40.2768 38.2742C40.2768 38.5111 40.0453 38.6982 39.7708 38.6982H18.8966C18.6139 38.6982 18.3906 38.5111 18.3906 38.2742C18.3906 38.0391 18.6139 37.8503 18.8966 37.8503ZM18.8966 41.3619H39.7708C40.0514 41.3619 40.2768 41.549 40.2768 41.7858C40.2768 42.021 40.0453 42.2097 39.7708 42.2097H18.8966C18.6139 42.2097 18.3906 42.021 18.3906 41.7858C18.3906 41.549 18.6139 41.3619 18.8966 41.3619ZM17.0099 44.1406H41.6493V14.8466H17.0099V44.1406ZM35.4423 20.9309C35.4423 23.7525 32.7035 26.0524 29.3296 26.0524C25.9618 26.0524 23.2169 23.7525 23.2169 20.9309C23.2169 18.1093 25.9618 15.8095 29.3296 15.8095C32.6973 15.8095 35.4423 18.1093 35.4423 20.9309Z" fill="#00CCFF"/>
<path id="Vector_4" fill-rule="evenodd" clip-rule="evenodd" d="M27.0824 19.4412C27.0824 19.8256 27.7686 19.8239 27.7686 19.4412C27.7686 19.285 27.617 19.1511 27.4286 19.1511C27.2422 19.1511 27.0824 19.285 27.0824 19.4412Z" fill="white"/>
<path id="Vector_5" fill-rule="evenodd" clip-rule="evenodd" d="M30.9418 22.4996C30.7451 22.4996 30.5935 22.6266 30.5935 22.7897C30.5935 22.9476 30.7533 23.0798 30.9418 23.0798C31.1282 23.0798 31.2879 22.9476 31.2879 22.7897C31.2879 22.6266 31.1364 22.4996 30.9418 22.4996Z" fill="white"/>
<path id="Vector_6" fill-rule="evenodd" clip-rule="evenodd" d="M30.9418 21.6518C31.6915 21.6518 32.2999 22.1598 32.2999 22.7897C32.2999 23.4196 31.6915 23.9276 30.9418 23.9276C30.19 23.9276 29.5836 23.4196 29.5836 22.7897C29.5836 22.1598 30.19 21.6518 30.9418 21.6518ZM24.2288 20.9309C24.2288 23.2857 26.519 25.2045 29.3296 25.2045C32.1401 25.2045 34.4303 23.2926 34.4303 20.9309C34.4303 18.5693 32.1401 16.6573 29.3296 16.6573C26.519 16.6573 24.2288 18.5762 24.2288 20.9309ZM30.9622 18.8491L28.629 23.3578C28.5491 23.5157 28.3606 23.6135 28.166 23.6135C27.8116 23.6135 27.5556 23.2994 27.7051 23.0197L30.0384 18.5092C30.1469 18.2981 30.4501 18.1951 30.7021 18.2913C30.9561 18.3822 31.079 18.6362 30.9622 18.8491ZM28.7806 19.4412C28.7806 20.0711 28.1804 20.5791 27.4286 20.5791C26.6788 20.5791 26.0704 20.0711 26.0704 19.4412C26.0704 18.813 26.6788 18.3033 27.4286 18.3033C28.1742 18.3033 28.7806 18.813 28.7806 19.4412Z" fill="white"/>
</g>
</g>
<defs>
<linearGradient id="paint0_linear_324_821" x1="29" y1="0" x2="29" y2="58" gradientUnits="userSpaceOnUse">
<stop stop-color="#123694" stop-opacity="0.58"/>
<stop offset="0.501166" stop-color="#99B8E9" stop-opacity="0.61"/>
<stop offset="1" stop-color="white" stop-opacity="0.12"/>
</linearGradient>
</defs>
</svg>
