<svg width="40" height="40" viewBox="0 0 40 40" fill="none" xmlns="http://www.w3.org/2000/svg">
<path d="M19.4118 3.52941C15.5115 3.52941 11.771 5.07878 9.01314 7.83666C6.25525 10.5946 4.70588 14.3351 4.70588 18.2353C4.70588 22.1355 6.25525 25.876 9.01314 28.6339C11.771 31.3918 15.5115 32.9412 19.4118 32.9412C23.312 32.9412 27.0525 31.3918 29.8104 28.6339C32.5683 25.876 34.1176 22.1355 34.1176 18.2353C34.1176 14.3351 32.5683 10.5946 29.8104 7.83666C27.0525 5.07878 23.312 3.52941 19.4118 3.52941Z" fill="#FFF59D"/>
<path d="M29.4118 18.0625C29.4118 12.2365 24.3308 7.62112 18.2491 8.30208C13.63 8.83172 9.93481 12.4635 9.4729 17.0032C9.08798 20.4837 10.5507 23.5858 13.0142 25.553C14.0919 26.4609 14.7848 27.7472 14.7848 29.1848V29.4118H24.0229V29.3361C24.0229 27.9742 24.6388 26.6123 25.7165 25.7043C27.9491 23.8884 29.4118 21.1646 29.4118 18.0625Z" fill="#FBC02D"/>
<path d="M24.3722 16.8959L22.0934 15.4059C21.8656 15.2569 21.4858 15.2569 21.2579 15.4059L19.3589 16.5979L17.5358 15.4059C17.308 15.2569 16.9282 15.2569 16.7003 15.4059L14.4215 16.8959C14.2696 17.0449 14.1176 17.1938 14.1176 17.4173C14.1176 17.6408 14.1176 17.8643 14.2696 18.0133L17.156 21.5148V29.4118H18.6752V21.2168C18.6752 21.0678 18.5993 20.9188 18.5233 20.7698L16.0166 17.7153L17.156 16.9703L18.9791 18.1623C19.207 18.3113 19.5868 18.3113 19.8146 18.1623L21.6377 16.9703L22.7771 17.7153L20.2704 20.7698C20.1944 20.9188 20.1185 21.0678 20.1185 21.2168V29.4118H21.6377V21.5148L24.5242 18.0133C24.6761 17.8643 24.752 17.6408 24.6761 17.4173C24.6001 17.1938 24.5242 16.9704 24.3722 16.8959Z" fill="#FFF59D"/>
<path d="M19.4118 32.9412C18.9437 32.9412 18.4949 33.1271 18.1639 33.458C17.833 33.789 17.6471 34.2379 17.6471 34.7059C17.6471 35.1739 17.833 35.6228 18.1639 35.9537C18.4949 36.2847 18.9437 36.4706 19.4118 36.4706C19.8798 36.4706 20.3287 36.2847 20.6596 35.9537C20.9905 35.6228 21.1765 35.1739 21.1765 34.7059C21.1765 34.2379 20.9905 33.789 20.6596 33.458C20.3287 33.1271 19.8798 32.9412 19.4118 32.9412Z" fill="#5C6BC0"/>
<path d="M20.7843 35.2941H18.0392C16.5294 35.2941 15.2941 33.8823 15.2941 32.1569V28.2353H23.5294V32.1569C23.5294 33.8823 22.2941 35.2941 20.7843 35.2941Z" fill="#9FA8DA"/>
<path d="M23.5294 32.5914L15.5686 33.8633C15.7745 34.4197 16.1863 34.9762 16.6667 35.2941L23.1176 34.2607C23.3922 33.7838 23.5294 33.2273 23.5294 32.5914ZM15.2941 30.7631V32.3529L23.5294 31.0016V29.4118L15.2941 30.7631Z" fill="#5C6BC0"/>
</svg>
