<svg width="34" height="34" viewBox="0 0 34 34" fill="none" xmlns="http://www.w3.org/2000/svg">
<g id="2747611679030651 3" clip-path="url(#clip0_324_42)">
<g id="Layer_x0020_1">
<path id="Vector" fill-rule="evenodd" clip-rule="evenodd" d="M30.4805 27.293H13.2812C13.082 27.293 13.8125 26.2305 13.6133 26.0977C13.4805 26.0312 11.9531 24.0391 11.9531 23.8398L9.76172 21.4492C9.82812 19.6562 11.8867 19.2578 13.8789 18.8594C16.0039 18.3945 17.4648 18.0625 17.4648 17C17.4648 16.6016 17.8633 16.3359 18.1953 16.3359C18.3945 16.3359 18.5273 16.4023 18.6602 16.5352H22.0469C22.1797 16.4023 22.3125 16.3359 22.5117 16.3359C22.9102 16.3359 23.2422 16.6016 23.2422 17C23.3086 17.9961 24.7695 18.3945 26.8281 18.793C28.8203 19.1914 30.8789 19.5898 31.0117 21.4492L31.2109 26.4961C31.2109 26.6953 31.2109 26.8281 31.0117 27.0273C30.8789 27.1602 30.6797 27.293 30.4805 27.293Z" fill="#DF5A49"/>
<path id="Vector_2" fill-rule="evenodd" clip-rule="evenodd" d="M27.293 27.293H25.832V22.9102C25.832 22.5117 26.1641 22.1797 26.5625 22.1797C26.9609 22.1797 27.293 22.5117 27.293 22.9102V27.293Z" fill="#B5493B"/>
<path id="Vector_3" fill-rule="evenodd" clip-rule="evenodd" d="M15.4727 18.4609C16.6016 18.1953 17.3984 17.7969 17.4648 17.1328C19.457 16.2695 21.7148 16.6016 23.3086 17.2656C23.4414 17.7969 24.1055 18.1289 25.1016 18.3945C25.5 18.8594 25.6328 19.2578 25.3008 19.5898C24.3711 20.5195 22.5117 21.1172 20.3867 21.1172C18.2617 21.1172 16.3359 20.5195 15.4062 19.5898C15.1406 19.2578 15.1406 18.8594 15.4062 18.5273C15.4062 18.5273 15.4727 18.5273 15.4727 18.4609Z" fill="#DBB07D"/>
<path id="Vector_4" fill-rule="evenodd" clip-rule="evenodd" d="M25.8984 9.23047C25.7656 9.23047 25.6328 9.23047 25.5664 9.09766C25.3672 8.89844 25.3672 8.63282 25.5664 8.4336C25.5664 8.4336 25.5664 8.36719 25.6328 8.36719L24.8359 6.77344L23.9727 5.97656L22.2461 5.44531L19.8555 5.37891L16.7344 5.91016L15.3398 7.96875C15.4063 8.03516 15.4063 8.10157 15.4063 8.10157C15.5391 8.36719 15.4063 8.63281 15.207 8.76563C14.9414 8.89844 14.6758 8.83203 14.543 8.56641C14.3438 8.23438 14.2773 7.57032 14.1445 6.90625C14.0781 6.375 13.9453 5.91016 13.8789 5.64453C13.8125 5.51172 13.7461 5.37891 13.7461 5.2461C13.4805 4.58203 13.6133 4.38281 14.2109 3.65235C14.8086 2.92188 15.6055 2.72266 16.2695 2.92188C17.332 1.52735 19.0586 0.398439 20.7188 0.0664078C22.1133 -0.132811 23.375 0.0664078 24.3711 0.796877C24.6367 0.996095 24.7695 1.26172 24.9023 1.59375C25.0352 1.72656 25.1016 1.92578 25.2344 2.125C25.5 2.52344 25.7656 2.85547 26.0313 3.1211C26.4297 3.58594 26.8945 4.11719 27.0938 5.04688C27.4258 6.3086 27.2266 8.10156 26.2969 9.09766C26.1641 9.23047 26.0313 9.23047 25.8984 9.23047Z" fill="#5A4146"/>
<path id="Vector_5" fill-rule="evenodd" clip-rule="evenodd" d="M20.3867 17.9961C17.9961 17.9297 15.8711 16.2031 14.8086 13.4141C13.9453 11.0898 13.8789 7.90234 15.7383 6.10938C17.4649 4.38281 23.043 4.38281 24.9024 6.04297C26.8281 7.70312 26.8281 10.8906 25.9649 13.2148C24.9688 16.0703 22.8438 17.9297 20.3867 17.9961Z" fill="#F0C087"/>
<path id="Vector_6" fill-rule="evenodd" clip-rule="evenodd" d="M10.5586 34H8.23438C8.03516 34 7.83594 33.8672 7.76953 33.6016L7.50391 31.6758C7.4375 31.6094 7.37109 31.6094 7.30469 31.543L5.71094 32.7383C5.51172 32.8711 5.24609 32.8711 5.11328 32.6719L3.45312 31.0781C3.32031 30.9453 3.25391 30.6797 3.45312 30.4805L4.58203 28.8867C4.58203 28.8203 4.58203 28.7539 4.51562 28.6875L2.58984 28.4219C2.32422 28.3555 2.125 28.1562 2.125 27.957V25.6992C2.125 25.4336 2.32422 25.2344 2.58984 25.168L4.51562 24.9023C4.58203 24.8359 4.58203 24.8359 4.58203 24.7695L3.45312 23.1758C3.32031 22.9766 3.32031 22.7109 3.51953 22.5117L5.11328 20.918C5.24609 20.7188 5.57812 20.7188 5.77734 20.8516L7.37109 22.0469C7.4375 22.0469 7.4375 21.9805 7.50391 21.9805L7.76953 20.0547C7.83594 19.7891 8.03516 19.5898 8.23438 19.5898H10.5586C10.7578 19.5898 10.957 19.7891 11.0234 20.0547L11.2891 21.9805C11.3555 21.9805 11.4219 22.0469 11.4219 22.0469L13.082 20.8516C13.2812 20.7188 13.5469 20.7188 13.6797 20.918L15.2734 22.5117C15.4727 22.7109 15.4727 22.9766 15.3398 23.1758L14.1445 24.7031C14.2109 24.7695 14.2109 24.8359 14.2773 24.9023L16.2031 25.168C16.4688 25.2344 16.6016 25.4336 16.6016 25.6992V27.957C16.6016 28.1562 16.4688 28.3555 16.2031 28.4219L14.2773 28.6875C14.2109 28.7539 14.2109 28.8203 14.1445 28.8867L15.3398 30.4805C15.4727 30.6797 15.4727 30.9453 15.2734 31.1445L13.6797 32.7383C13.5469 32.8711 13.2812 32.9375 13.082 32.8047L11.4219 31.6094L11.2891 31.6758L10.957 33.6016C11.0234 33.8672 10.7578 34 10.5586 34ZM9.42969 29.8164C7.76953 29.8164 6.375 28.4883 6.375 26.7617C6.375 25.168 7.76953 23.7734 9.42969 23.7734C11.0898 23.7734 12.418 25.168 12.418 26.8281C12.418 28.4883 11.0898 29.8164 9.42969 29.8164Z" fill="white"/>
</g>
</g>
<defs>
<clipPath id="clip0_324_42">
<rect width="34" height="34" fill="white"/>
</clipPath>
</defs>
</svg>
