<svg width="88" height="89" viewBox="0 0 88 89" fill="none" xmlns="http://www.w3.org/2000/svg">
<g id="Group 2">
<path id="Ellipse 10" d="M87.5 44.5C87.5 68.8059 68.0191 88.5 44 88.5C19.9809 88.5 0.5 68.8059 0.5 44.5C0.5 20.1941 19.9809 0.5 44 0.5C68.0191 0.5 87.5 20.1941 87.5 44.5Z" fill="white" stroke="#C9C9C9"/>
<path id="Vector" opacity="0.4" d="M44.2211 46.7242C51.5229 46.7242 57.4422 41.1895 57.4422 34.3621C57.4422 27.5347 51.5229 22 44.2211 22C36.9193 22 31 27.5347 31 34.3621C31 41.1895 36.9193 46.7242 44.2211 46.7242Z" fill="#200E32"/>
<path id="Vector_2" d="M65.2846 60.437C65.2965 60.261 65.2965 60.0846 65.2846 59.9087C65.2323 59.2585 65.0374 58.6235 64.7108 58.0393C63.4256 55.6619 59.8223 54.5849 56.8157 53.9753C54.6706 53.5526 52.4911 53.2808 50.2976 53.1626L48.0025 53H46.9697H45.6845H42.609H41.3238H40.291L37.9959 53.1626C35.8024 53.2808 33.6229 53.5526 31.4778 53.9753C28.4713 54.5037 24.868 55.6009 23.5827 58.0393C23.2562 58.6235 23.0613 59.2585 23.0089 59.9087C22.997 60.0846 22.997 60.261 23.0089 60.437C22.9979 60.613 22.9979 60.7893 23.0089 60.9653C23.0714 61.61 23.274 62.2378 23.6057 62.8144C24.8909 65.1918 28.4942 66.2687 31.5008 66.8783C33.6499 67.2812 35.8277 67.5528 38.0189 67.6911L40.314 67.8333H40.8648H41.3467H46.9927H47.4746H48.0255L50.3206 67.6911C52.5117 67.5528 54.6896 67.2812 56.8386 66.8783C59.8452 66.3297 63.4485 65.2527 64.7338 62.8144C65.05 62.2196 65.2443 61.5797 65.3075 60.9247C65.3104 60.7618 65.3028 60.599 65.2846 60.437Z" fill="#979797"/>
</g>
</svg>
