<svg width="35" height="24" viewBox="0 0 35 24" fill="none" xmlns="http://www.w3.org/2000/svg">
<g filter="url(#filter0_d_948_43)">
<path d="M29.1445 17.1616C28.9004 17.8045 28.5993 18.4067 28.2412 18.9683L28.2046 18.9805C27.6024 18.834 27.106 18.6143 26.7153 18.3213V18.2725C26.7153 18.1097 26.8293 17.7842 27.0571 17.2959C27.2931 16.8158 27.4722 16.5228 27.5942 16.417C27.7489 16.417 28.0337 16.5106 28.4487 16.6978C28.8719 16.8931 29.1038 17.0477 29.1445 17.1616ZM30.1821 10.8506L30.231 11.0947C30.231 12.4782 29.3643 13.3205 27.6309 13.6216C27.1751 13.6948 26.3735 13.821 25.2261 14V11.7295C26.1538 11.5749 27.8058 11.2819 30.1821 10.8506Z" fill="#719FF4"/>
</g>
<g filter="url(#filter1_d_948_43)">
<path d="M23.4341 14C22.8237 14.0977 21.5583 14.3743 19.6377 14.8301L19.5156 14.7202C19.4342 12.6857 19.3 9.63802 19.1128 5.57715C19.772 4.65755 20.2725 4.1001 20.6143 3.90479L21.1392 12.1689H21.4321C21.6925 12.1689 22.3599 12.0265 23.4341 11.7417V14Z" fill="#719FF4"/>
</g>
<g filter="url(#filter2_d_948_43)">
<path d="M14.1836 10.8872C14.1836 12.3195 13.9517 13.2513 13.4878 13.6826C12.853 14.2767 11.9741 14.7812 10.8511 15.1963C9.76872 15.6032 8.77588 15.8066 7.87256 15.8066C7.41683 15.8066 6.80648 15.7375 6.0415 15.5991C5.18701 15.4445 4.77197 15.2899 4.79639 15.1353C6.73323 14.411 9.60596 13.2676 13.4145 11.7051C13.4959 11.5423 13.5773 11.3836 13.6587 11.229C13.8215 10.9604 13.9598 10.8221 14.0737 10.814L14.1836 10.8872Z" fill="#719FF4"/>
</g>
<defs>
<filter id="filter0_d_948_43" x="21.2261" y="7.85059" width="13.0049" height="16.1299" filterUnits="userSpaceOnUse" color-interpolation-filters="sRGB">
<feFlood flood-opacity="0" result="BackgroundImageFix"/>
<feColorMatrix in="SourceAlpha" type="matrix" values="0 0 0 0 0 0 0 0 0 0 0 0 0 0 0 0 0 0 127 0" result="hardAlpha"/>
<feOffset dy="1"/>
<feGaussianBlur stdDeviation="2"/>
<feComposite in2="hardAlpha" operator="out"/>
<feColorMatrix type="matrix" values="0 0 0 0 0.4875 0 0 0 0 0.4875 0 0 0 0 0.4875 0 0 0 0.33 0"/>
<feBlend mode="normal" in2="BackgroundImageFix" result="effect1_dropShadow_948_43"/>
<feBlend mode="normal" in="SourceGraphic" in2="effect1_dropShadow_948_43" result="shape"/>
</filter>
<filter id="filter1_d_948_43" x="15.1128" y="0.904785" width="12.3213" height="18.9253" filterUnits="userSpaceOnUse" color-interpolation-filters="sRGB">
<feFlood flood-opacity="0" result="BackgroundImageFix"/>
<feColorMatrix in="SourceAlpha" type="matrix" values="0 0 0 0 0 0 0 0 0 0 0 0 0 0 0 0 0 0 127 0" result="hardAlpha"/>
<feOffset dy="1"/>
<feGaussianBlur stdDeviation="2"/>
<feComposite in2="hardAlpha" operator="out"/>
<feColorMatrix type="matrix" values="0 0 0 0 0.4875 0 0 0 0 0.4875 0 0 0 0 0.4875 0 0 0 0.33 0"/>
<feBlend mode="normal" in2="BackgroundImageFix" result="effect1_dropShadow_948_43"/>
<feBlend mode="normal" in="SourceGraphic" in2="effect1_dropShadow_948_43" result="shape"/>
</filter>
<filter id="filter2_d_948_43" x="0.795368" y="7.81396" width="17.3882" height="12.9927" filterUnits="userSpaceOnUse" color-interpolation-filters="sRGB">
<feFlood flood-opacity="0" result="BackgroundImageFix"/>
<feColorMatrix in="SourceAlpha" type="matrix" values="0 0 0 0 0 0 0 0 0 0 0 0 0 0 0 0 0 0 127 0" result="hardAlpha"/>
<feOffset dy="1"/>
<feGaussianBlur stdDeviation="2"/>
<feComposite in2="hardAlpha" operator="out"/>
<feColorMatrix type="matrix" values="0 0 0 0 0.4875 0 0 0 0 0.4875 0 0 0 0 0.4875 0 0 0 0.33 0"/>
<feBlend mode="normal" in2="BackgroundImageFix" result="effect1_dropShadow_948_43"/>
<feBlend mode="normal" in="SourceGraphic" in2="effect1_dropShadow_948_43" result="shape"/>
</filter>
</defs>
</svg>
